<?xml version="1.0" encoding="UTF-8"?>
<!DOCTYPE svg PUBLIC "-//W3C//DTD SVG 1.1//EN" "http://www.w3.org/Graphics/SVG/1.1/DTD/svg11.dtd">
<svg xmlns="http://www.w3.org/2000/svg" version="1.1" width="512px" height="512px" style="shape-rendering:geometricPrecision; text-rendering:geometricPrecision; image-rendering:optimizeQuality; fill-rule:evenodd; clip-rule:evenodd" xmlns:xlink="http://www.w3.org/1999/xlink">
<g><path style="opacity:0.998" fill="#000000" d="M 383.5,151.5 C 383.5,148.833 383.5,146.167 383.5,143.5C 415.5,143.5 447.5,143.5 479.5,143.5C 479.5,106.167 479.5,68.8333 479.5,31.5C 420.833,31.5 362.167,31.5 303.5,31.5C 303.5,52.8333 303.5,74.1667 303.5,95.5C 300.833,95.5 298.167,95.5 295.5,95.5C 292.833,95.5 290.167,95.5 287.5,95.5C 287.333,70.1645 287.5,44.8311 288,19.5C 288.5,17.6667 289.667,16.5 291.5,16C 358.915,15.0071 426.249,15.3404 493.5,17C 494.126,17.7504 494.626,18.5838 495,19.5C 495.167,42.1667 495.333,64.8333 495.5,87.5C 495.657,110.919 495.157,134.252 494,157.5C 493.25,158.126 492.416,158.626 491.5,159C 455.502,159.5 419.502,159.667 383.5,159.5C 383.5,156.833 383.5,154.167 383.5,151.5 Z"/></g>
<g><path style="opacity:1" fill="#02c169" d="M 383.5,151.5 C 378.167,151.5 372.833,151.5 367.5,151.5C 357.828,143.493 348.161,135.493 338.5,127.5C 345.5,127.5 352.5,127.5 359.5,127.5C 359.5,130.167 359.5,132.833 359.5,135.5C 389.502,135.667 419.502,135.5 449.5,135C 451.329,134.727 452.829,133.893 454,132.5C 454.92,129.899 455.587,127.232 456,124.5C 456.465,123.069 457.299,121.903 458.5,121C 462.62,120.117 466.453,118.617 470,116.5C 471.628,97.8989 471.961,79.2322 471,60.5C 470.535,59.0692 469.701,57.9025 468.5,57C 465.899,56.0797 463.232,55.413 460.5,55C 456.455,52.747 454.622,49.247 455,44.5C 454.535,43.0692 453.701,41.9025 452.5,41C 412.56,39.3509 372.56,39.0176 332.5,40C 331.069,40.4652 329.903,41.2986 329,42.5C 328,45.8333 327,49.1667 326,52.5C 325.097,53.7014 323.931,54.5348 322.5,55C 317.753,54.6219 314.253,56.4553 312,60.5C 311.5,74.8295 311.333,89.1628 311.5,103.5C 314.167,103.5 316.833,103.5 319.5,103.5C 319.5,106.167 319.5,108.833 319.5,111.5C 328.702,112.369 334.036,117.369 335.5,126.5C 322.864,118.847 309.531,112.847 295.5,108.5C 295.5,104.167 295.5,99.8333 295.5,95.5C 298.167,95.5 300.833,95.5 303.5,95.5C 303.5,74.1667 303.5,52.8333 303.5,31.5C 362.167,31.5 420.833,31.5 479.5,31.5C 479.5,68.8333 479.5,106.167 479.5,143.5C 447.5,143.5 415.5,143.5 383.5,143.5C 383.5,146.167 383.5,148.833 383.5,151.5 Z"/></g>
<g><path style="opacity:1" fill="#000000" d="M 359.5,127.5 C 359.5,124.833 359.5,122.167 359.5,119.5C 386.833,119.5 414.167,119.5 441.5,119.5C 443.833,112.5 448.5,107.833 455.5,105.5C 455.5,93.5 455.5,81.5 455.5,69.5C 448.973,67.3116 444.307,62.9783 441.5,56.5C 408.167,55.1667 374.833,55.1667 341.5,56.5C 338.833,62.5 334.5,66.8333 328.5,69.5C 327.501,80.8138 327.168,92.1471 327.5,103.5C 324.833,103.5 322.167,103.5 319.5,103.5C 316.833,103.5 314.167,103.5 311.5,103.5C 311.333,89.1628 311.5,74.8295 312,60.5C 314.253,56.4553 317.753,54.6219 322.5,55C 323.931,54.5348 325.097,53.7014 326,52.5C 327,49.1667 328,45.8333 329,42.5C 329.903,41.2986 331.069,40.4652 332.5,40C 372.56,39.0176 412.56,39.3509 452.5,41C 453.701,41.9025 454.535,43.0692 455,44.5C 454.622,49.247 456.455,52.747 460.5,55C 463.232,55.413 465.899,56.0797 468.5,57C 469.701,57.9025 470.535,59.0692 471,60.5C 471.961,79.2322 471.628,97.8989 470,116.5C 466.453,118.617 462.62,120.117 458.5,121C 457.299,121.903 456.465,123.069 456,124.5C 455.587,127.232 454.92,129.899 454,132.5C 452.829,133.893 451.329,134.727 449.5,135C 419.502,135.5 389.502,135.667 359.5,135.5C 359.5,132.833 359.5,130.167 359.5,127.5 Z"/></g>
<g><path style="opacity:0.945" fill="#000000" d="M 220.5,55.5 C 237.5,55.5 254.5,55.5 271.5,55.5C 271.5,60.8333 271.5,66.1667 271.5,71.5C 230.858,67.6621 192.524,75.1621 156.5,94C 108.684,123.196 80.8511,165.696 73,221.5C 71.5271,248.151 71.1938,274.818 72,301.5C 75.009,297.661 78.1756,293.994 81.5,290.5C 86.0524,293.603 90.3857,296.936 94.5,300.5C 86.2884,311.756 77.9551,322.923 69.5,334C 65.2191,336.109 61.0524,335.942 57,333.5C 48.8333,322.5 40.6667,311.5 32.5,300.5C 36.6143,296.936 40.9476,293.603 45.5,290.5C 48.8244,293.994 51.991,297.661 55,301.5C 55.066,271.806 55.7327,242.139 57,212.5C 69.6037,142.906 108.437,94.4061 173.5,67C 188.882,61.4295 204.549,57.5961 220.5,55.5 Z"/></g>
<g><path style="opacity:1" fill="#3bdc8c" d="M 359.5,127.5 C 352.5,127.5 345.5,127.5 338.5,127.5C 337.391,127.443 336.391,127.11 335.5,126.5C 334.036,117.369 328.702,112.369 319.5,111.5C 319.5,108.833 319.5,106.167 319.5,103.5C 322.167,103.5 324.833,103.5 327.5,103.5C 327.168,92.1471 327.501,80.8138 328.5,69.5C 334.5,66.8333 338.833,62.5 341.5,56.5C 374.833,55.1667 408.167,55.1667 441.5,56.5C 444.307,62.9783 448.973,67.3116 455.5,69.5C 455.5,81.5 455.5,93.5 455.5,105.5C 448.5,107.833 443.833,112.5 441.5,119.5C 414.167,119.5 386.833,119.5 359.5,119.5C 359.5,122.167 359.5,124.833 359.5,127.5 Z"/></g>
<g><path style="opacity:1" fill="#000100" d="M 385.5,63.5 C 398.3,62.2308 407.633,67.2308 413.5,78.5C 419.463,79.4959 425.463,79.8293 431.5,79.5C 431.5,84.8333 431.5,90.1667 431.5,95.5C 425.463,95.1707 419.463,95.5041 413.5,96.5C 407.646,107.928 398.313,112.761 385.5,111C 378.118,108.453 372.785,103.62 369.5,96.5C 363.537,95.5041 357.537,95.1707 351.5,95.5C 351.5,90.1667 351.5,84.8333 351.5,79.5C 357.5,79.5 363.5,79.5 369.5,79.5C 372.497,71.8361 377.831,66.5028 385.5,63.5 Z"/></g>
<g><path style="opacity:1" fill="#07c870" d="M 388.5,79.5 C 396.658,78.8229 400.158,82.4895 399,90.5C 396.774,94.8608 393.274,96.3608 388.5,95C 384.139,92.7742 382.639,89.2742 384,84.5C 385.025,82.313 386.525,80.6464 388.5,79.5 Z"/></g>
<g><path style="opacity:0.986" fill="#020100" d="M 295.5,108.5 C 309.531,112.847 322.864,118.847 335.5,126.5C 336.391,127.11 337.391,127.443 338.5,127.5C 348.161,135.493 357.828,143.493 367.5,151.5C 408.974,200.391 418.474,255.058 396,315.5C 371.332,368.155 330.166,398.655 272.5,407C 253.179,408.71 234.179,407.21 215.5,402.5C 201.469,398.153 188.136,392.153 175.5,384.5C 174.833,384.167 174.167,383.833 173.5,383.5C 163.144,375.983 153.144,367.983 143.5,359.5C 102.025,310.603 92.5251,255.936 115,195.5C 139.668,142.845 180.834,112.345 238.5,104C 249.833,103.333 261.167,103.333 272.5,104C 280.375,104.645 288.042,106.145 295.5,108.5 Z"/></g>
<g><path style="opacity:1" fill="#fcc130" d="M 251.5,119.5 C 262.174,119.654 270.341,124.321 276,133.5C 285.585,149.345 292.418,166.345 296.5,184.5C 282.853,189.75 268.686,192.084 254,191.5C 245.071,191.676 236.237,190.842 227.5,189C 222.858,188.26 218.524,186.76 214.5,184.5C 218.527,164.457 226.36,146.123 238,129.5C 242.141,125.503 246.641,122.17 251.5,119.5 Z"/></g>
<g><path style="opacity:1" fill="#fac030" d="M 220.5,123.5 C 221.376,123.369 222.043,123.702 222.5,124.5C 211.402,141.371 203.568,159.705 199,179.5C 185.937,173.261 174.103,165.261 163.5,155.5C 180.015,140.409 199.015,129.743 220.5,123.5 Z"/></g>
<g><path style="opacity:1" fill="#fac030" d="M 288.5,123.5 C 310.959,129.226 330.625,139.892 347.5,155.5C 337,165.344 325.167,173.344 312,179.5C 307.147,159.476 299.314,140.809 288.5,123.5 Z"/></g>
<g><path style="opacity:1" fill="#fdc230" d="M 151.5,167.5 C 159.264,173.559 167.264,179.393 175.5,185C 182.5,188.833 189.5,192.667 196.5,196.5C 193.155,213.314 191.488,230.314 191.5,247.5C 167.5,247.5 143.5,247.5 119.5,247.5C 121.764,217.354 132.431,190.687 151.5,167.5 Z"/></g>
<g><path style="opacity:1" fill="#fdc230" d="M 357.5,167.5 C 360.764,168.927 363.264,171.261 365,174.5C 380.856,196.23 389.689,220.563 391.5,247.5C 367.5,247.5 343.5,247.5 319.5,247.5C 319.512,230.319 317.845,213.319 314.5,196.5C 324.596,190.948 334.596,185.114 344.5,179C 349.027,175.301 353.361,171.468 357.5,167.5 Z"/></g>
<g><path style="opacity:0.946" fill="#000000" d="M 443.5,175.5 C 446.978,175.184 450.312,175.684 453.5,177C 461.955,188.077 470.288,199.244 478.5,210.5C 474.386,214.064 470.052,217.397 465.5,220.5C 462.176,217.006 459.009,213.339 456,209.5C 455.667,236.5 455.333,263.5 455,290.5C 445.323,361.82 407.823,412.32 342.5,442C 309.29,454.61 274.957,459.11 239.5,455.5C 239.5,450.167 239.5,444.833 239.5,439.5C 280.142,443.338 318.476,435.838 354.5,417C 402.316,387.804 430.149,345.304 438,289.5C 439.473,262.849 439.806,236.182 439,209.5C 435.991,213.339 432.824,217.006 429.5,220.5C 424.948,217.397 420.614,214.064 416.5,210.5C 425.203,198.481 434.203,186.814 443.5,175.5 Z"/></g>
<g><path style="opacity:1" fill="#fcc230" d="M 211.5,201.5 C 240.138,209.477 268.805,209.477 297.5,201.5C 298.647,201.818 299.481,202.484 300,203.5C 302.22,218.086 303.387,232.753 303.5,247.5C 271.5,247.5 239.5,247.5 207.5,247.5C 207.572,232.037 208.906,216.703 211.5,201.5 Z"/></g>
<g><path style="opacity:1" fill="#fdc230" d="M 119.5,263.5 C 143.5,263.5 167.5,263.5 191.5,263.5C 191.936,280.127 193.602,296.627 196.5,313C 196.167,313.833 195.833,314.667 195.5,315.5C 179.631,322.593 165.297,331.927 152.5,343.5C 132.738,320.618 121.738,293.952 119.5,263.5 Z"/></g>
<g><path style="opacity:1" fill="#fcc230" d="M 207.5,263.5 C 239.5,263.5 271.5,263.5 303.5,263.5C 303.112,278.928 301.779,294.261 299.5,309.5C 275.399,303.314 251.066,302.148 226.5,306C 221.593,307.614 216.593,308.781 211.5,309.5C 209.375,294.245 208.041,278.911 207.5,263.5 Z"/></g>
<g><path style="opacity:1" fill="#fdc230" d="M 319.5,263.5 C 343.5,263.5 367.5,263.5 391.5,263.5C 389.262,293.952 378.262,320.618 358.5,343.5C 345.581,331.786 331.081,322.452 315,315.5C 317.104,298.256 318.604,280.923 319.5,263.5 Z"/></g>
<g><path style="opacity:1" fill="#fcc230" d="M 240.5,319.5 C 254.25,319.054 267.916,319.888 281.5,322C 286.664,323.04 291.664,324.54 296.5,326.5C 292.62,341.307 287.454,355.64 281,369.5C 277.601,375.568 273.435,381.068 268.5,386C 261.8,391.767 254.467,392.767 246.5,389C 235.931,380.387 228.431,369.553 224,356.5C 220.529,346.587 217.362,336.587 214.5,326.5C 215.912,325.194 217.579,324.36 219.5,324C 226.59,322.269 233.59,320.769 240.5,319.5 Z"/></g>
<g><path style="opacity:1" fill="#f9bf30" d="M 198.5,331.5 C 202.696,342.905 206.862,354.571 211,366.5C 213.909,373.324 217.576,379.658 222,385.5C 222.688,386.332 222.521,386.998 221.5,387.5C 199.473,381.491 180.14,370.825 163.5,355.5C 174.086,345.912 185.753,337.912 198.5,331.5 Z"/></g>
<g><path style="opacity:1" fill="#fac030" d="M 310.5,331.5 C 324.438,337.119 336.771,345.119 347.5,355.5C 330.6,371.447 310.933,381.78 288.5,386.5C 299.741,369.786 307.074,351.453 310.5,331.5 Z"/></g>
<g><path style="opacity:0.998" fill="#000000" d="M 127.5,359.5 C 127.5,362.167 127.5,364.833 127.5,367.5C 95.5,367.5 63.5,367.5 31.5,367.5C 31.5,404.833 31.5,442.167 31.5,479.5C 90.1667,479.5 148.833,479.5 207.5,479.5C 207.5,458.167 207.5,436.833 207.5,415.5C 210.167,415.5 212.833,415.5 215.5,415.5C 218.167,415.5 220.833,415.5 223.5,415.5C 223.667,440.836 223.5,466.169 223,491.5C 222.5,493.333 221.333,494.5 219.5,495C 152.085,495.993 84.7514,495.66 17.5,494C 16.8742,493.25 16.3742,492.416 16,491.5C 15.8333,468.833 15.6667,446.167 15.5,423.5C 15.3428,400.081 15.8428,376.748 17,353.5C 17.7504,352.874 18.5838,352.374 19.5,352C 55.4985,351.5 91.4985,351.333 127.5,351.5C 127.5,354.167 127.5,356.833 127.5,359.5 Z"/></g>
<g><path style="opacity:1" fill="#02c169" d="M 127.5,359.5 C 132.833,359.5 138.167,359.5 143.5,359.5C 153.144,367.983 163.144,375.983 173.5,383.5C 166.167,383.5 158.833,383.5 151.5,383.5C 151.5,380.833 151.5,378.167 151.5,375.5C 121.165,375.333 90.8315,375.5 60.5,376C 56.4553,378.253 54.6219,381.753 55,386.5C 52.747,390.545 49.247,392.378 44.5,392C 43.0692,392.465 41.9025,393.299 41,394.5C 39.3602,412.743 39.0269,431.076 40,449.5C 41.7264,454.29 45.2264,456.457 50.5,456C 51.9308,456.465 53.0975,457.299 54,458.5C 54.8832,462.62 56.3832,466.453 58.5,470C 78.5798,471.156 98.7465,471.656 119,471.5C 139.562,471.65 160.062,471.15 180.5,470C 182.617,466.453 184.117,462.62 185,458.5C 185.903,457.299 187.069,456.465 188.5,456C 191.232,455.587 193.899,454.92 196.5,454C 197.893,452.829 198.727,451.329 199,449.5C 199.5,435.504 199.667,421.504 199.5,407.5C 196.833,407.5 194.167,407.5 191.5,407.5C 191.5,404.833 191.5,402.167 191.5,399.5C 182.312,398.646 176.979,393.646 175.5,384.5C 188.136,392.153 201.469,398.153 215.5,402.5C 215.5,406.833 215.5,411.167 215.5,415.5C 212.833,415.5 210.167,415.5 207.5,415.5C 207.5,436.833 207.5,458.167 207.5,479.5C 148.833,479.5 90.1667,479.5 31.5,479.5C 31.5,442.167 31.5,404.833 31.5,367.5C 63.5,367.5 95.5,367.5 127.5,367.5C 127.5,364.833 127.5,362.167 127.5,359.5 Z"/></g>
<g><path style="opacity:1" fill="#000000" d="M 151.5,383.5 C 151.5,386.167 151.5,388.833 151.5,391.5C 124.159,391.167 96.8252,391.5 69.5,392.5C 66.8333,398.5 62.5,402.833 56.5,405.5C 55.1667,417.5 55.1667,429.5 56.5,441.5C 62.9783,444.307 67.3116,448.973 69.5,455.5C 102.833,455.5 136.167,455.5 169.5,455.5C 171.833,448.5 176.5,443.833 183.5,441.5C 183.5,430.167 183.5,418.833 183.5,407.5C 186.167,407.5 188.833,407.5 191.5,407.5C 194.167,407.5 196.833,407.5 199.5,407.5C 199.667,421.504 199.5,435.504 199,449.5C 198.727,451.329 197.893,452.829 196.5,454C 193.899,454.92 191.232,455.587 188.5,456C 187.069,456.465 185.903,457.299 185,458.5C 184.117,462.62 182.617,466.453 180.5,470C 160.062,471.15 139.562,471.65 119,471.5C 98.7465,471.656 78.5798,471.156 58.5,470C 56.3832,466.453 54.8832,462.62 54,458.5C 53.0975,457.299 51.9308,456.465 50.5,456C 45.2264,456.457 41.7264,454.29 40,449.5C 39.0269,431.076 39.3602,412.743 41,394.5C 41.9025,393.299 43.0692,392.465 44.5,392C 49.247,392.378 52.747,390.545 55,386.5C 54.6219,381.753 56.4553,378.253 60.5,376C 90.8315,375.5 121.165,375.333 151.5,375.5C 151.5,378.167 151.5,380.833 151.5,383.5 Z"/></g>
<g><path style="opacity:1" fill="#3bdc8c" d="M 151.5,383.5 C 158.833,383.5 166.167,383.5 173.5,383.5C 174.167,383.833 174.833,384.167 175.5,384.5C 176.979,393.646 182.312,398.646 191.5,399.5C 191.5,402.167 191.5,404.833 191.5,407.5C 188.833,407.5 186.167,407.5 183.5,407.5C 183.5,418.833 183.5,430.167 183.5,441.5C 176.5,443.833 171.833,448.5 169.5,455.5C 136.167,455.5 102.833,455.5 69.5,455.5C 67.3116,448.973 62.9783,444.307 56.5,441.5C 55.1667,429.5 55.1667,417.5 56.5,405.5C 62.5,402.833 66.8333,398.5 69.5,392.5C 96.8252,391.5 124.159,391.167 151.5,391.5C 151.5,388.833 151.5,386.167 151.5,383.5 Z"/></g>
<g><path style="opacity:1" fill="#000100" d="M 113.5,399.5 C 123.837,398.255 132.337,401.589 139,409.5C 140.559,411.217 141.392,413.217 141.5,415.5C 147.5,415.5 153.5,415.5 159.5,415.5C 159.5,420.833 159.5,426.167 159.5,431.5C 153.463,431.171 147.463,431.504 141.5,432.5C 135.646,443.928 126.313,448.761 113.5,447C 106.118,444.453 100.785,439.62 97.5,432.5C 91.5368,431.504 85.5368,431.171 79.5,431.5C 79.5,426.167 79.5,420.833 79.5,415.5C 85.5,415.5 91.5,415.5 97.5,415.5C 100.497,407.836 105.831,402.503 113.5,399.5 Z"/></g>
<g><path style="opacity:1" fill="#07c870" d="M 116.5,415.5 C 124.658,414.823 128.158,418.49 127,426.5C 124.774,430.861 121.274,432.361 116.5,431C 112.139,428.774 110.639,425.274 112,420.5C 113.025,418.313 114.525,416.646 116.5,415.5 Z"/></g>
</svg>
